<?xml version="1.0" encoding="UTF-8"?>
<svg xmlns="http://www.w3.org/2000/svg" xmlns:xlink="http://www.w3.org/1999/xlink" width="187.780mm" height="28.181mm" viewBox="5.322656 -136.523132 187.779938 28.181488">
    <path transform="matrix(0.180224,0,0,-0.180224,5.129135,-107.867546)" style="stroke:#000000;stroke-width:0.05mm;fill:none" d="M513.5,158C513.160095,157.449997,509.110077,157,504.5,157C499.889923,157,495.880463,156.615616,495.590118,156.145828C495.299774,155.676041,490.885712,154.977097,485.781097,154.592636C480.676514,154.208176,476.07251,153.467545,475.549988,152.946808C475.027496,152.426056,473.141571,152,471.359009,152C469.576477,152,467.872437,151.6026,467.572235,151.116867C467.272034,150.631149,464.545471,149.923782,461.513214,149.544922C458.480957,149.166061,456,148.438461,456,147.92804C456,147.417618,454.676544,147,453.059021,147C451.441467,147,449.815704,146.510803,449.446167,145.912888C449.07663,145.314972,447.925507,145.047714,446.888123,145.319C445.850769,145.590286,444.783813,145.459198,444.51712,145.027725C443.882782,144.001297,436.713165,140.521027,435.772217,140.782761C435.371948,140.894089,432.93988,139.810226,430.367645,138.374161L425.690857,135.763138L420.762573,141.381561C416.078308,146.721832,412.907074,148.276703,411.463501,145.940948C411.103516,145.358475,409.839447,144.953751,408.65448,145.041565C405.959229,145.241287,402,144.022324,402,142.992767C402,142.19165,396.158722,140.974304,392.299561,140.971176C391.089325,140.9702,389.825256,140.526276,389.49054,139.984695C389.155823,139.443115,387.810089,139,386.5,139C385.189911,139,383.859375,138.581497,383.543243,138.069992C383.227112,137.558487,380.494629,136.830887,377.471008,136.45311C374.447418,136.075333,371.727966,135.368851,371.427765,134.883133C371.127563,134.3974,369.585083,134,368,134C366.414917,134,364.85614,133.576233,364.536011,133.058289C364.215912,132.540344,360.804382,131.806213,356.954803,131.426895C353.105255,131.047562,349.71405,130.346329,349.418793,129.868607C349.123535,129.390869,347.585083,129,346,129C344.414917,129,342.813171,128.506744,342.440582,127.903885C342.067993,127.301018,340.446625,127.000984,338.837555,127.237152C337.228455,127.473312,335.680206,127.291565,335.396942,126.833267C335.113708,126.374969,333.135071,126,331,126C328.864929,126,326.839905,125.550003,326.5,125C326.160095,124.449997,324.408539,124,322.607635,124C320.806763,124,319.03009,123.69677,318.659485,123.326157C318.288879,122.955536,315.333954,122.760529,312.093018,122.892799C308.7341,123.029884,305.916962,122.67466,305.541199,122.066643C304.643677,120.614418,273.361328,120.606339,272.464081,122.058105C272.067627,122.699577,268.292603,123.038887,262.876678,122.919846C257.963257,122.811844,253.65596,123.010704,253.304916,123.36174C252.953888,123.712784,250.293228,124,247.392349,124C244.49147,124,241.83992,124.449997,241.5,125C241.16008,125.550003,239.360077,126,237.5,126C235.639923,126,233.838898,126.451653,233.497726,127.00367C233.15657,127.555687,231.745331,127.723206,230.361664,127.375923C228.094391,126.806877,226.21489,127.343567,220.763565,130.116669C219.808533,130.602509,217.922592,131,216.572586,131C215.22258,131,213.852066,131.430344,213.526993,131.956329C213.20192,132.4823,212.320877,132.67662,211.569122,132.388153C210.817368,132.09967,209.905228,132.34433,209.54213,132.931824C209.179047,133.519318,207.783524,134,206.440979,134C205.09845,134,204,134.449997,204,135C204,135.550003,203.074097,136,201.942444,136C200.810791,136,197.885788,137.116089,195.442444,138.480194C192.9991,139.844299,191,140.713654,191,140.412094C191,140.110535,189.762497,140.735413,188.25,141.800705C186.737503,142.865997,184.375,144.080688,183,144.5C181.625,144.919312,179.305527,146.103348,177.845627,147.131195C174.282867,149.639542,173.54808,149.527557,168.783798,145.75C161.165253,139.709305,147,124.324364,147,122.090508C147,120.602493,111.384071,120.569542,110.464951,122.056709C110.066635,122.701195,106.129791,123.039146,100.372948,122.923035C95.181534,122.818321,90.648865,123.017799,90.300346,123.366325C89.95182,123.714844,87.968224,124,85.892349,124C83.816475,124,81.83992,124.449997,81.5,125C81.16008,125.550003,79.585083,126,78,126C76.414917,126,74.866028,126.407753,74.558022,126.90612C74.250015,127.404488,73.120888,127.58287,72.048859,127.302528C70.97683,127.022186,68.839775,127.672638,67.299858,128.747986C65.759933,129.823318,62.928417,131.005508,61.007595,131.375061C56.905331,132.164291,52,134.21225,52,135.135696C52,135.491821,50.789948,136.086884,49.310993,136.458084C47.832043,136.829269,45.35704,138.033707,43.810993,139.134583C42.264946,140.235474,41,140.802109,41,140.393784C41,139.985458,39.86409,140.718506,38.475761,142.022766L35.951519,144.39418L29.47576,137.975983C25.914091,134.445969,23,130.968155,23,130.247498C23,129.526855,22.290527,128.664978,21.423395,128.33223C20.556263,127.999481,19.432339,126.7761,18.925783,125.613617C17.851767,123.148857,16.377691,120.733269,13.252511,116.316719C12.01363,114.565918,11,112.402519,11,111.509163C11,110.615814,9.801599,107.773285,8.336885,105.192444C5.989752,101.056763,5.663461,99.363045,5.586885,90.917664C5.534671,85.159081,5.998802,80.270821,6.75,78.667664C7.4375,77.200447,8.543092,74.762497,9.20687,73.25C9.870648,71.737503,10.932185,69.824997,11.565841,69C14.875922,64.690376,13.71742,58.599403,9.267933,56.918449C3.50409,54.740952,-0.966034,48.333111,2,46.5C2.55,46.16008,3,44.585083,3,43C3,41.414917,3.385682,39.879669,3.857071,39.588333C4.328461,39.297001,4.965264,36.6255,5.272192,33.651665C5.579118,30.677828,6.280606,27.402136,6.831053,26.372345C8.381662,23.471426,11,17.275948,11,16.507835C11,16.128386,12.575,13.977895,14.5,11.728966C16.424999,9.480036,18,7.115746,18,6.474989C18,5.834231,18.837067,4.552441,19.860146,3.626566C22.230619,1.481317,26.626301,2.903746,27.911833,6.232067C29.674156,10.794822,37.84103,16,43.237625,16C45.123596,16,46.892601,15.774064,47.168747,15.497921C47.444889,15.221778,263.143951,14.995842,526.5,14.995842C789.856018,14.995842,1005.555115,15.221778,1005.831238,15.497921C1006.107422,15.774064,1008.183228,16,1010.444153,16C1014.854736,16,1019,13.792293,1019,11.443296C1019,10.649484,1019.450012,10,1020,10C1020.549988,10,1021,9.403441,1021,8.674314C1021,7.945187,1022.057434,6.355196,1023.349915,5.141003C1025.848633,2.793533,1026.750244,3.205809,1028.508423,7.5C1028.95874,8.6,1029.426636,9.725,1029.548096,10C1029.669678,10.275,1030.098511,11.5125,1030.501099,12.75C1030.903809,13.9875,1031.582031,15,1032.008179,15C1032.434448,15,1033.086914,16.210052,1033.45813,17.689005C1033.829224,19.167957,1034.957275,21.535616,1035.964722,22.950468C1036.972168,24.365318,1038.119873,28.111214,1038.515137,31.274677C1038.9104,34.438141,1039.631104,37.272041,1040.116821,37.572231C1040.602539,37.872425,1041,39.414917,1041,41C1041,42.585083,1041.449951,44.16008,1042,44.5C1042.550049,44.83992,1043,46.403721,1043,47.975113C1043,50.197136,1041.666382,52.039082,1037,56.261883C1033.698608,59.249481,1031,62.541565,1031,63.581432C1031,65.725311,1035.952026,76.127113,1037.489868,77.213661C1039.000122,78.280685,1038.739502,100.253502,1037.210449,100.763168C1036.544678,100.985092,1036,102.227608,1036,103.524315C1036,104.821022,1035.538086,106.167458,1034.973511,106.516388C1034.408936,106.865326,1034.029907,107.679382,1034.131226,108.325409C1034.405029,110.071091,1032.956299,113.217064,1030.746216,115.675972C1029.670532,116.872757,1029.048706,118.269844,1029.36438,118.780609C1029.680054,119.291382,1028.827271,120.753136,1027.469238,122.028954C1026.111084,123.304771,1025,124.94519,1025,125.674316C1025,126.403442,1024.550049,127,1024,127C1023.450012,127,1023,127.586723,1023,128.303833C1023,129.020935,1021.442505,131.117249,1019.53894,132.96228C1017.635315,134.807327,1016.267822,136.624298,1016.5,137C1016.732178,137.375702,1015.374573,139.18309,1013.483032,141.016418C1010.350708,144.052429,1009.885864,144.215073,1008.271973,142.839874C1006.360046,141.210785,989.1474,132.562576,987.5,132.403351C986.034058,132.261658,980.124939,130.034882,975.817444,128.000916C974.342041,127.304253,972.44397,126.99939,971.599487,127.323448C970.755005,127.647514,969.798096,127.482307,969.473022,126.956329C969.147949,126.430344,967.783508,126,966.440979,126C965.09845,126,964,125.550003,964,125C964,124.438599,961.222229,124,957.666687,124C954.18335,124,951.051941,123.71859,950.707947,123.374641C950.364014,123.030693,945.380615,122.830009,939.633728,122.92868C933.19635,123.0392,928.934753,122.703407,928.533386,122.054039C928.125793,121.394539,922.509766,121,913.529846,121L899.177795,121L896.519531,124.25C895.057495,126.037498,893.217468,128.292648,892.430603,129.261429C891.643799,130.230225,891,131.366486,891,131.786453C891,133.028641,876.720093,146.506851,874,147.832062C871.764709,148.921082,870.444275,148.51796,861.53009,144.025024C856.046631,141.261261,851.103088,139,850.544434,139C849.667603,139,842.329407,135.741852,836.728149,132.865601C835.753601,132.365173,832.928833,131.677856,830.450867,131.338211C827.972839,130.998566,825.706116,130.333511,825.413696,129.860336C825.121216,129.387146,823.810059,129,822.5,129C821.189941,129,819.813171,128.506744,819.440613,127.903885C819.067993,127.301018,817.446655,127.000984,815.837524,127.237152C814.228455,127.473312,812.680176,127.291565,812.396973,126.833267C812.113708,126.374969,810.198547,126,808.140991,126C806.083435,126,803.945496,125.545471,803.389954,124.989944C802.834412,124.43441,795.977234,123.688637,788.151733,123.332657C780.326294,122.976677,773.68927,122.306198,773.402771,121.842712C772.613892,120.566231,740.253479,120.780838,739.458069,122.067825C739.088684,122.66552,736.427673,123.025848,733.414001,122.886246C730.452698,122.749069,727.723145,122.94355,727.348267,123.31842C726.973389,123.693291,724.968201,124,722.892334,124C720.816467,124,718.839905,124.449997,718.5,125C718.160095,125.550003,716.360107,126,714.5,126C712.639893,126,710.838928,126.451653,710.497742,127.00367C710.156555,127.555687,708.829102,127.744225,707.547791,127.422646C706.266541,127.101059,704.917542,127.324409,704.550049,127.918976C704.182617,128.513535,702.135071,129,700,129C697.864929,129,695.861755,129.414688,695.548523,129.921539C695.235229,130.428375,692.052429,131.156464,688.475586,131.53952C684.898743,131.922562,681.726868,132.632874,681.427063,133.117981C681.127258,133.603088,679.585083,134,678,134C676.414917,134,674.872437,134.3974,674.572205,134.883133C674.272034,135.368851,671.473022,136.085281,668.352234,136.475204C665.231384,136.865112,661.962952,137.540207,661.088989,137.975403C656.195129,140.412338,654.18219,141.138275,652.913635,140.923691C651.440613,140.674515,648.730103,141.489319,645.76355,143.072998C644.808533,143.582855,642.922607,144,641.572571,144C640.222595,144,638.852051,144.430344,638.526978,144.956329C638.201904,145.4823,637.320862,145.67662,636.569153,145.388153C635.817383,145.09967,634.905212,145.34433,634.542114,145.931824C634.179016,146.519318,632.589172,147,631.009094,147C628.213928,147,626.739014,145.545792,623.397888,139.495712C622.112305,137.167831,618.594116,136.40448,615.600769,137.80394C604.662292,142.917969,599.269836,145.227539,597.833313,145.413635C597.466675,145.461136,596.829163,145.837494,596.416687,146.25C596.00415,146.662506,594.418213,147,592.892334,147C591.366455,147,589.847961,147.436951,589.517944,147.971008C589.187866,148.505066,586.676208,149.23938,583.936462,149.602814C581.196716,149.966263,578.713623,150.654297,578.418518,151.131805C578.123413,151.609314,576.108521,152,573.940979,152C571.773438,152,570,152.406693,570,152.903763C570,153.400848,565.268066,154.130066,559.484558,154.524277C553.70105,154.918472,548.724487,155.63678,548.425537,156.120499C548.126587,156.604233,544.560059,157,540.5,157C536.439941,157,532.839905,157.449997,532.5,158C532.160095,158.550003,527.885071,159,523,159C518.114929,159,513.839905,158.550003,513.5,158z"/>
    <path transform="matrix(0.180224,0,0,-0.180224,5.129135,-107.867546)" style="stroke:#000000;stroke-width:0.05mm;fill:none" d="M532.406433,154.151367C532.694885,153.684631,538.908936,152.987152,546.215393,152.601425C553.521851,152.215698,559.927429,151.47258,560.449951,150.950058C560.972473,150.427521,563.308472,150,565.640991,150C567.973511,150,570.167358,149.538177,570.516235,148.97374C570.865051,148.409302,572.579102,147.963257,574.325256,147.982513C579.153015,148.035797,585,146.889969,585,145.890594C585,145.400772,586.09845,145,587.440979,145C588.783508,145,590.133972,144.592239,590.441956,144.093887C590.75,143.59552,591.879089,143.41713,592.951111,143.697479C594.044006,143.983261,596.19812,143.283035,597.854492,142.103592C599.479309,140.946625,601.552673,140,602.461914,140C603.371155,140,606.155823,138.860687,608.650024,137.468201C611.144165,136.075714,615.089355,134.675369,617.417053,134.356323C621.537476,133.79155,621.772705,133.91745,626.328979,139.125931C630.518616,143.91539,631.216309,144.346008,632.990784,143.237823C634.080933,142.557022,635.878967,142,636.98645,142C638.093872,142,639,141.601852,639,141.115219C639,140.628601,641.467896,139.922104,644.484253,139.545242C647.500549,139.168365,650.227112,138.441513,650.543274,137.930008C650.859375,137.418503,652.441467,137,654.059021,137C655.676575,137,657,136.582382,657,136.07196C657,135.561539,659.480957,134.833939,662.513245,134.455078C665.545471,134.076218,668.272034,133.368851,668.572205,132.883133C668.872437,132.3974,670.414917,132,672,132C673.585083,132,675.155823,131.556885,675.49054,131.015305C675.825256,130.473724,677.089294,130.0233,678.299561,130.014374C682.603333,129.982605,689.021057,128.774902,689.565308,127.894363C689.869324,127.402466,691.414917,127,693,127C694.585083,127,696.147949,126.569656,696.473022,126.043671C696.798096,125.517693,697.758118,125.353676,698.606384,125.679192C700.08313,126.245888,706.7677,124.686646,710.073303,123.004417C710.938599,122.564049,715.101135,121.880043,719.323303,121.48439C723.545471,121.088737,727,120.367897,727,119.882515C727,119.397133,729.898438,119,733.440979,119C736.983521,119,740.160095,118.550003,740.5,118C741.327332,116.661392,771.672668,116.661392,772.5,118C772.840942,118.551689,777.324036,119,782.5,119C787.660095,119,792.118347,119.382446,792.407227,119.849876C792.696106,120.317307,796.872986,121.002647,801.689209,121.372849C806.505432,121.743057,810.88562,122.485611,811.422974,123.022972C811.960327,123.560341,814.083435,124,816.140991,124C818.198547,124,820.179016,124.480675,820.542114,125.068176C820.905212,125.65567,821.817383,125.900322,822.569153,125.611847C823.320862,125.323372,824.201904,125.517693,824.526978,126.043671C824.852051,126.569656,826.222595,127,827.572571,127C828.922607,127,830.921021,127.449997,832.01355,128C833.106079,128.550003,834.918335,129.46524,836.040649,130.033875C837.163025,130.602509,838.563354,130.769852,839.152466,130.405762C839.741577,130.041672,840.510803,130.162369,840.861816,130.673981C841.581726,131.723282,848.303467,135,849.736084,135C850.249695,135,855.049255,137.25,860.401794,140C870.540833,145.209183,872.795715,145.804291,874.799988,143.800003C875.460022,143.139999,876,143.012131,876,143.515839C876,144.019547,878.474976,141.987427,881.5,139C884.525024,136.012573,887,133.068893,887,132.458481C887,131.848053,888.125,130.291748,889.5,129C890.875,127.708252,892,126.186287,892,125.617851C892,125.049408,893.666321,122.877853,895.702942,120.79216L899.405884,117L913.143921,117C921.223938,117,927.136475,117.41185,927.5,118C927.850769,118.567543,932.824036,119,939,119C944.985107,119,950.124023,119.391632,950.419861,119.870293C950.715637,120.348953,954.58374,120.950493,959.015625,121.207047C963.447449,121.4636,967.596985,122.196968,968.236755,122.836754C968.876526,123.47654,970.633423,124,972.140991,124C973.648499,124,975.179016,124.480675,975.542114,125.068176C975.905212,125.65567,976.817383,125.900322,977.569153,125.611847C978.320862,125.323372,979.201904,125.517693,979.526978,126.043671C979.852051,126.569656,980.997559,127,982.072571,127C983.147583,127,984.808533,127.417152,985.76355,127.927002C987.738708,128.981445,990.716858,129.973419,991.648682,129.887238C991.993958,129.855301,992.551697,130.219421,992.888184,130.696381C993.22467,131.17334,996.424988,133.027237,1000,134.816162C1003.575012,136.605072,1007.290955,138.615646,1008.25769,139.284088C1009.771545,140.330887,1010.56958,139.875427,1014.012268,135.99971C1016.210632,133.524872,1018.920471,129.583008,1020.03418,127.240028C1021.147888,124.897041,1022.945801,122.4263,1024.029541,121.749481C1025.113281,121.072662,1026,119.697128,1026,118.692734C1026,117.688332,1027.076782,115.434082,1028.392822,113.683281C1029.70874,111.932472,1031.0979,108.589859,1031.479736,106.255241C1031.861572,103.920624,1032.584839,101.756561,1033.087036,101.44622C1033.589111,101.13588,1034,99.585083,1034,98C1034,96.414917,1034.449951,94.83992,1035,94.5C1035.550049,94.16008,1036,91.685081,1036,89C1036,86.314919,1035.550049,83.83992,1035,83.5C1034.449951,83.16008,1034,81.8554,1034,80.600708C1034,79.346008,1032.558472,75.435066,1030.796509,71.909721C1029.034546,68.384377,1027.510742,64.599998,1027.410156,63.5C1027.226685,61.492695,1032.541016,55,1034.367432,55C1034.903687,55,1036.165405,54.255257,1037.171265,53.345013C1039.098389,51.601028,1039.762695,44.589439,1038.098389,43.56081C1037.602539,43.254341,1036.883301,40.30278,1036.500244,37.001793C1036.117065,33.700806,1035.397827,31,1034.901855,31C1034.405762,31,1034,29.676558,1034,28.059017C1034,26.441477,1033.599854,24.870728,1033.11084,24.568466C1032.621704,24.266203,1031.916748,22.804592,1031.544312,21.320444C1031.171753,19.836294,1030.046387,17.469542,1029.043457,16.060995C1028.040405,14.652448,1027.157715,13.275,1027.081665,13C1027.005737,12.725,1026.67627,11.478016,1026.349609,10.228925C1025.880005,8.432988,1025.467407,8.197088,1024.377808,9.10137C1023.620056,9.730306,1023,10.780599,1023,11.435353C1023,12.763133,1018.698486,16.830139,1015.26355,18.75C1012.582825,20.248346,1007.363525,20.397238,1006.5,19C1005.642578,17.612707,48.357395,17.612707,47.5,19C45.460567,22.29987,35.346573,18.157703,28.626726,11.27049C25.423866,7.987856,23.996284,7.17444,22.25,7.637121C21.012501,7.964999,20,8.777337,20,9.442317C20,10.107297,18.900352,11.684437,17.556341,12.947071C14.853136,15.486599,11.454326,21.841824,11.819199,23.674593C11.947812,24.320618,11.591106,25.134676,11.02652,25.48361C10.461934,25.832542,10,27.216476,10,28.559017C10,29.901558,9.608145,31,9.12921,31C8.650276,31,7.949048,34.139652,7.570924,37.977005C7.192801,41.814358,6.459657,45.215916,5.941714,45.536022C4.341665,46.524906,4.817352,52,6.503317,52C7.330142,52,10.255141,54.167274,13.003317,56.816162C17.829138,61.467636,19.200289,64,16.893011,64C16.284168,64,16.061996,64.719177,16.399298,65.598175C16.763453,66.547142,15.994484,68.406273,14.506288,70.174896C13.12783,71.813103,12,74.243927,12,75.576729C12,76.909523,11.55,78,11,78C10.45,78,10,79.098442,10,80.440987C10,81.783524,9.55,83.16008,9,83.5C7.697041,84.305275,7.697041,95.694725,9,96.5C9.55,96.83992,10,98.097519,10,99.294662C10,101.185081,13.447919,109.487648,16.106882,114C16.593023,114.824997,17.774008,117.1875,18.731289,119.25C19.68857,121.3125,20.826782,123,21.260651,123C21.694519,123,22.507687,124.012497,23.06769,125.25C25.957024,131.634872,33.160664,140,35.769669,140C36.519745,140,38.565918,138.910034,40.316723,137.577866C42.067524,136.245682,44.737499,134.846893,46.25,134.469452C47.762501,134.09201,49,133.434448,49,133.008224C49,132.582001,50.012501,131.903809,51.25,131.50116C52.487499,131.098495,53.724998,130.669647,54,130.548157C54.275002,130.426666,55.400002,129.987823,56.5,129.572952C57.599998,129.158081,59.400002,128.450256,60.5,128C63.916679,126.601479,66.471893,125.676376,67.166664,125.586365C67.533333,125.538864,68.17083,125.162498,68.583336,124.75C68.995834,124.337502,70.581779,124,72.107651,124C73.633522,124,75.13826,123.585312,75.451508,123.078468C75.764748,122.571625,78.947563,121.843529,82.524422,121.46048C86.10128,121.077431,89.273109,120.367119,89.572922,119.882011C89.872734,119.396904,94.789917,119,100.5,119C106.342621,119,111.152191,118.562767,111.5,118C111.87249,117.397301,118.81794,117,128.981689,117L145.845352,117L150.422684,122.357811C152.940201,125.304611,155,128.131195,155,128.639114C155,129.871841,166.121887,140.829681,169.125946,142.556717C173.515503,145.080261,173.994095,145.216583,175.75,144.443359C176.712494,144.019516,177.725006,143.620972,178,143.557709C179.658356,143.176208,192.558441,136.4021,192.833328,135.768417C193.016663,135.345795,193.623657,135,194.182205,135C195.198959,135,200.924377,132.667603,204.29068,130.88205C205.275543,130.359665,206.481949,130.179825,206.971573,130.482437C207.461197,130.785034,208.144455,130.575287,208.489914,130.016312C208.835388,129.457336,210.189926,129,211.5,129C212.810074,129,214.123428,128.609314,214.418533,128.131805C214.713654,127.654305,217.196716,126.966255,219.936462,126.602814C222.676193,126.23938,225.187851,125.505066,225.517914,124.971008C225.847977,124.436951,227.576477,124,229.359024,124C231.141556,124,233.027496,123.573936,233.550003,123.053192C234.072495,122.532455,238.676498,121.791832,243.781113,121.407372C248.885727,121.022903,253.299774,120.323967,253.590134,119.854172C253.880478,119.384377,258.339905,119,263.5,119C268.675964,119,273.159027,118.551689,273.5,118C274.327301,116.661392,304.672699,116.661392,305.5,118C305.839905,118.550003,308.764923,119,312,119C315.235077,119,318.127045,119.396523,318.426544,119.881157C318.726074,120.365799,322.34964,121.078911,326.478882,121.465851C330.608154,121.852798,334.241211,122.581276,334.552338,123.084694C334.863464,123.588112,336.864929,124,339,124C341.135071,124,343.186279,124.492378,343.558197,125.09417C343.930115,125.695961,345.317413,125.981316,346.641083,125.728279C347.964752,125.475243,349.288544,125.657867,349.582886,126.134109C349.877228,126.610352,351.639923,127,353.5,127C355.360077,127,357.160095,127.449997,357.5,128C357.839905,128.550003,359.414917,129,361,129C362.585083,129,364.161102,129.451645,364.502258,130.003677C364.843445,130.555695,366.170898,130.744232,367.452179,130.422638C368.73349,130.101059,370.082458,130.324402,370.449921,130.918976C370.817383,131.513535,372.414917,132,374,132C375.585083,132,377.123413,132.390686,377.418549,132.868195C377.713654,133.345703,380.196716,134.033737,382.936462,134.397186C385.676208,134.76062,388.187866,135.494934,388.517914,136.028992C388.847992,136.563049,390.222595,137,391.572571,137C392.922577,137,394.808533,137.425415,395.76358,137.945374C396.718597,138.465317,399.1875,139.160706,401.25,139.490677C403.3125,139.820648,405,140.520233,405,141.045319C405,141.570389,406.131104,142,407.51358,142C408.896027,142,410.86142,142.521027,411.881104,143.157822C414.128479,144.561325,416.822021,143.683533,417.665771,141.272675C418.006989,140.297699,419.843414,137.858246,421.746735,135.851669L425.207336,132.203339L430.353668,134.720947C433.184143,136.105637,436.399994,137.604446,437.5,138.051651C442.295746,140.001328,447.657623,142.277908,449.586365,143.183365C450.733887,143.722076,452.308899,144.055206,453.086365,143.923691C454.559357,143.674515,457.269928,144.489319,460.23642,146.072998C461.191467,146.582855,463.028961,147,464.319763,147C465.610565,147,466.990814,147.324142,467.386963,147.720306C467.783142,148.11647,469.612701,148.310913,471.452637,148.15239C473.292603,147.993866,475.095032,148.344727,475.458038,148.932083C475.821045,149.51944,477.576477,150,479.359009,150C481.141571,150,483.033234,150.433228,483.562714,150.962708C484.092194,151.492203,490.72345,152.236481,498.298828,152.616653C505.874207,152.996826,512.307556,153.688614,512.595154,154.153946C513.278564,155.25975,531.7229,155.25737,532.406433,154.151367z"/>
</svg>
