<?xml version="1.0" encoding="UTF-8"?>
<svg id="Layer_1" data-name="Layer 1" xmlns="http://www.w3.org/2000/svg" viewBox="0 0 534.29 81.89">
  <defs>
    <style>
      .cls-1 {
        fill: none;
        stroke: #000;
        stroke-miterlimit: 2.04;
        stroke-width: 2px;
      }
    </style>
  </defs>
  <path class="cls-1" d="m262.79,1.51c-.17.28-2.24.51-4.6.51s-4.4.2-4.55.44-2.4.6-5.01.79c-2.61.2-4.96.57-5.23.84-.27.27-1.23.48-2.14.48s-1.78.2-1.93.45c-.15.25-1.55.61-3.1.8s-2.82.57-2.82.83-.68.47-1.5.47-1.66.25-1.85.56-.78.44-1.31.3c-.53-.14-1.08-.07-1.21.15-.32.52-3.99,2.3-4.47,2.17-.2-.06-1.45.5-2.76,1.23l-2.39,1.33-2.52-2.87c-2.39-2.73-4.01-3.52-4.75-2.33-.18.3-.83.5-1.44.46-1.38-.1-3.4.52-3.4,1.05,0,.41-2.98,1.03-4.96,1.03-.62,0-1.26.23-1.44.5s-.86.5-1.53.5-1.35.21-1.51.48-1.56.63-3.1.83c-1.54.19-2.93.55-3.09.8-.15.25-.94.45-1.75.45s-1.61.22-1.77.48c-.16.26-1.91.64-3.87.83-1.97.19-3.7.55-3.85.8-.15.24-.94.44-1.75.44s-1.63.25-1.82.56c-.19.31-1.02.46-1.84.34-.82-.12-1.61-.03-1.76.21-.14.23-1.16.43-2.25.43s-2.13.23-2.3.51-1.07.51-1.99.51-1.83.15-2.02.34c-.19.19-1.7.29-3.35.22-1.72-.07-3.16.11-3.35.42-.46.74-16.44.75-16.9,0-.2-.33-2.13-.5-4.9-.44-2.51.06-4.71-.05-4.89-.23-.18-.18-1.54-.33-3.02-.33s-2.84-.23-3.01-.51-1.09-.51-2.04-.51-1.87-.23-2.04-.51c-.17-.28-.9-.37-1.6-.19-1.16.29-2.12.02-4.9-1.4-.49-.25-1.45-.45-2.14-.45s-1.39-.22-1.56-.49c-.17-.27-.62-.37-1-.22-.38.15-.85.02-1.04-.28-.19-.3-.9-.55-1.58-.55s-1.25-.23-1.25-.51-.47-.51-1.05-.51-2.07-.57-3.32-1.27-2.27-1.14-2.27-.99-.63-.17-1.4-.71-1.98-1.16-2.68-1.38-1.89-.82-2.63-1.34c-1.82-1.28-2.2-1.22-4.63.71-3.89,3.09-11.13,10.95-11.13,12.09,0,.76-18.19.78-18.66.02-.2-.33-2.21-.5-5.16-.44-2.65.05-4.97-.05-5.15-.23-.18-.18-1.19-.32-2.25-.32s-2.07-.23-2.24-.51-.98-.51-1.79-.51-1.6-.21-1.76-.46-.73-.35-1.28-.2-1.64-.19-2.43-.74c-.79-.55-2.23-1.15-3.21-1.34-2.1-.4-4.6-1.45-4.6-1.92,0-.18-.62-.49-1.37-.68-.76-.19-2.02-.8-2.81-1.37-.79-.56-1.44-.85-1.44-.64s-.58-.17-1.29-.83l-1.29-1.21-3.31,3.28c-1.82,1.8-3.31,3.58-3.31,3.95s-.36.81-.81.98-1.02.79-1.28,1.39c-.55,1.26-1.3,2.49-2.9,4.75-.63.89-1.15,2-1.15,2.46s-.61,1.91-1.36,3.23c-1.2,2.11-1.37,2.98-1.4,7.29-.03,2.94.21,5.44.59,6.26.35.75.92,2,1.26,2.77s.88,1.75,1.21,2.17c1.69,2.2,1.1,5.31-1.17,6.17-2.94,1.11-5.23,4.39-3.71,5.32.28.17.51.98.51,1.79s.2,1.59.44,1.74c.24.15.57,1.51.72,3.03.16,1.52.52,3.19.8,3.72.79,1.48,2.13,4.65,2.13,5.04,0,.19.8,1.29,1.79,2.44.98,1.15,1.79,2.36,1.79,2.68s.43.98.95,1.46c1.21,1.1,3.46.37,4.11-1.33.9-2.33,5.07-4.99,7.83-4.99.96,0,1.87.12,2.01.26.14.14,110.33.26,244.87.26s244.73-.12,244.87-.26c.14-.14,1.2-.26,2.36-.26,2.25,0,4.37,1.13,4.37,2.33,0,.41.23.74.51.74s.51.3.51.68.54,1.18,1.2,1.81c1.28,1.2,1.74.99,2.64-1.21.23-.56.47-1.14.53-1.28.06-.14.28-.77.49-1.4.21-.63.55-1.15.77-1.15s.55-.62.74-1.37c.19-.76.77-1.97,1.28-2.69.51-.72,1.1-2.64,1.3-4.25s.57-3.06.82-3.22c.25-.15.45-.94.45-1.75s.23-1.61.51-1.79.51-.97.51-1.78c0-1.14-.68-2.08-3.07-4.23-1.69-1.53-3.07-3.21-3.07-3.74,0-1.1,2.53-6.41,3.32-6.96.77-.55.64-11.77-.14-12.03-.34-.11-.62-.75-.62-1.41s-.24-1.35-.52-1.53c-.29-.18-.48-.59-.43-.92.14-.89-.6-2.5-1.73-3.76-.55-.61-.87-1.33-.71-1.59.16-.26-.27-1.01-.97-1.66-.69-.65-1.26-1.49-1.26-1.86s-.23-.68-.51-.68-.51-.3-.51-.67-.8-1.44-1.77-2.38c-.97-.94-1.67-1.87-1.55-2.06s-.57-1.12-1.54-2.05c-1.6-1.55-1.84-1.63-2.66-.93-.98.83-9.77,5.25-10.61,5.33-.75.07-3.77,1.21-5.97,2.25-.75.36-1.72.51-2.15.35-.43-.17-.92-.08-1.09.19-.17.27-.86.49-1.55.49s-1.25.23-1.25.51-1.42.51-3.24.51-3.38.14-3.55.32c-.18.18-2.72.28-5.66.23-3.29-.06-5.47.12-5.67.45-.21.34-3.08.54-7.66.54h-7.33l-1.36-1.66c-.75-.91-1.69-2.07-2.09-2.56-.4-.49-.73-1.08-.73-1.29,0-.63-7.3-7.52-8.68-8.2-1.14-.56-1.82-.35-6.37,1.94-2.8,1.41-5.33,2.57-5.61,2.57-.45,0-4.2,1.66-7.06,3.13-.5.26-1.94.61-3.21.78-1.27.17-2.42.51-2.57.75-.15.24-.82.44-1.49.44s-1.37.25-1.56.56c-.19.31-1.02.46-1.84.34-.82-.12-1.61-.03-1.76.21-.14.23-1.12.43-2.17.43s-2.14.23-2.43.52c-.28.28-3.79.66-7.78.85-4,.18-7.39.52-7.53.76-.4.65-16.93.54-17.34-.12-.19-.31-1.55-.49-3.09-.42-1.51.07-2.91-.03-3.1-.22s-1.22-.35-2.28-.35-2.07-.23-2.24-.51-1.09-.51-2.04-.51-1.87-.23-2.04-.51-.85-.38-1.51-.21c-.65.16-1.34.05-1.53-.25-.19-.3-1.23-.55-2.32-.55s-2.11-.21-2.27-.47c-.16-.26-1.79-.63-3.61-.83-1.83-.2-3.45-.56-3.6-.81s-.94-.45-1.75-.45-1.6-.2-1.75-.45c-.15-.25-1.58-.61-3.18-.81-1.59-.2-3.26-.54-3.71-.77-2.5-1.24-3.53-1.62-4.18-1.51-.75.13-2.14-.29-3.65-1.1-.49-.26-1.45-.47-2.14-.47s-1.39-.22-1.56-.49c-.17-.27-.62-.37-1-.22-.38.15-.85.02-1.04-.28s-1-.55-1.8-.55c-1.43,0-2.18.74-3.89,3.83-.66,1.19-2.45,1.58-3.98.86-5.59-2.61-8.34-3.79-9.08-3.89-.19-.02-.51-.22-.72-.43-.21-.21-1.02-.38-1.8-.38s-1.56-.22-1.72-.5c-.17-.27-1.45-.65-2.85-.83-1.4-.19-2.67-.54-2.82-.78s-1.18-.44-2.29-.44-2.01-.21-2.01-.46-2.42-.63-5.37-.83c-2.95-.2-5.5-.57-5.65-.82-.15-.25-1.97-.45-4.05-.45s-3.91-.23-4.09-.51-2.36-.51-4.85-.51-4.68.23-4.85.51Z"/>
</svg>