<?xml version="1.0" encoding="UTF-8"?>
<svg id="Layer_1" data-name="Layer 1" xmlns="http://www.w3.org/2000/svg" viewBox="0 0 174.24 175.99">
  <path d="m126.25,156.87c4.72-.25,8.21.11,11.52,1.57.74.33,1.41.87,2,1.43.24.22.33.79.23,1.12-.07.22-.61.43-.92.41-3.38-.2-6.59.82-9.88,1.28-.3.04-.57.26-.85.39.22.22.41.52.67.66,1.29.66,2.61,1.28,3.92,1.92.37.18.75.36,1.1.58,1,.64,1.04,1.07.08,1.75-1.45,1.02-3.13,1.26-4.85,1.41-3.85.33-7.51-.63-11.21-1.44-1.64-.36-3.37-.37-5.06-.51-.72-.06-.99.35-1.11,1.04-.28,1.63-.64,3.25-.99,4.87-.3,1.41-.68,1.6-2.09,1.25-3.38-.84-6.01-2.95-8.69-5-1.52-1.16-3.03-2.33-4.61-3.41-1.99-1.36-2.96-1.21-4.44.72-1.87,2.45-3.37,5.13-4.49,8.01-.52,1.35-.67,1.38-1.77.4-2.07-1.84-3.49-4.09-4.33-6.72-.44-1.38-.91-2.75-1.42-4.11-.4-1.09-.69-1.16-1.62-.49-2.26,1.64-3.83,3.9-5.47,6.1-.67.9-1.24,1.87-1.95,2.74-.36.45-.91.74-1.38,1.1-.36-.48-.85-.92-1.05-1.46-.81-2.17-1.65-4.35-2.26-6.58-.46-1.72-1.37-2.62-3.1-3.1-5.32-1.48-10.69-2.04-16.18-1.39-1.4.16-2.78.51-4.17.72-.94.14-1.9.3-2.84.29-1.62-.02-3.24-.15-4.86-.25-.18-.01-.36-.14-.53-.22.1-.17.17-.36.3-.49.17-.18.38-.32.59-.46,4.26-2.84,8.61-5.53,13.29-7.64,2.97-1.34,6.01-2.13,9.32-1.51,1.79.33,3.58.04,5.23-.79,1.56-.78,3.14-1.53,4.65-2.4,1.43-.82,2.18-2.11,2.28-3.77.25-4.06.37-8.12-.22-12.15-.91-6.16-3.19-11.65-8.12-15.77-2.91-2.43-6.24-4.14-9.84-5.27-3.21-1.01-6.49-1.78-9.73-2.69-.9-.25-1.18.27-1.43.96-.94,2.65-2.21,5.09-4.23,7.1-3.36,3.34-7.54,4.93-12.14,5.56-1.6.22-3.24.19-4.86.31-3.12.23-5.84-.8-8.22-2.7-3.93-3.13-7.13-6.91-9.09-11.53-2.7-6.38-1.57-12.33,2.73-17.69.77-.97,1.74-1.78,2.63-2.65.83-.81.84-.96.06-1.82-2.26-2.49-4.07-5.25-4.9-8.55-1.96-7.88,2.44-16.26,9.45-18.9.93-.35,1.89-.67,2.86-.84.88-.15,1.16-.53,1.15-1.4-.02-2.58.43-5.06,2.11-7.13.67-.82,1.55-1.49,2.38-2.17.47-.39.63-.74.24-1.25-1.21-1.56-1.76-3.39-1.91-5.31-.29-3.6-.34-7.18.94-10.68,2.46-6.74,9.45-11.73,16.64-11.96,5.29-.17,10.06,1.05,14.15,4.5.59.5,1.22.97,1.83,1.45.28-.71.57-1.41.83-2.12,1.75-4.83,3.99-9.39,7.55-13.19,4.65-4.96,10.37-7.76,17.13-8.59,3.4-.42,6.77-.56,10.19-.06,4.56.67,8.61,2.45,12.33,5.08,2.7,1.91,5.02,4.23,7.15,6.74.86,1.02,1.71,1.28,3.04.99,2.71-.61,5.46-1.2,8.22-1.43,6.71-.55,12.66,1.46,17.75,5.86,4.99,4.32,8.11,9.82,9.91,16.09.32,1.11.85,1.66,1.98,1.87,1.18.22,2.34.58,3.47,1,5.26,1.94,7.4,8.52,4.77,12.74-.91,1.46-.84,1.5.68,2.43,4.87,2.98,8.99,6.69,11.67,11.82,2.6,5,3.39,10.32,2.36,15.8-.48,2.53-1.56,4.97-2.5,7.4-.36.93-.36,1.54.53,2.09,6.57,4.08,7.01,13.25,1.81,18.84-5.73,6.17-15.71,5.26-19.85-1.88-.37-.64-.72-1.3-1.63-1.37-4.44-.31-8.88-.98-13.32-.36-2.75.38-5.47,1.09-8.14,1.84-4.2,1.17-8.36,2.5-12.54,3.76-.24.07-.47.18-.71.25-4.01,1.06-6.18,3.84-7.18,7.67-1.95,7.52-3.35,15.12-3.34,22.91,0,2.04.38,4.11.83,6.12.63,2.82,2.55,4.77,5.1,5.94,2.56,1.17,5.26,2.04,7.9,3.03,3.09,1.15,6.26,1.66,8.42,1.32ZM54.15,91.48c-2.95,0-5.76.49-8.5,1.4-1.02.34-2.01.79-3,1.22-.18.08-.27.35-.4.53.17.09.34.21.52.26.2.05.41.04.62.03,2.8-.09,5.45.65,8.03,1.57,5.93,2.12,10.99,5.65,15.73,9.69,1.17,1,2.29,2.04,3.45,3.06.5.44.96.47.98-.33.06-2.28.26-4.6-.87-6.7-3.54-6.62-9-10.32-16.57-10.74Zm49.13-21.25s.03,0,.04,0c0,3.15,0,6.3.01,9.44,0,.34.2.67.31,1.01.3-.1.65-.13.9-.31,1.58-1.14,3.24-2.2,4.69-3.49,3.4-3.02,5.47-6.73,5.62-11.37.02-.69-.12-1.18-.82-1.49-3.12-1.37-6.22-2.79-9.35-4.15-1.15-.5-1.4-.32-1.41.92-.01,3.15,0,6.3,0,9.45Zm25.08,23.41c-.25-.37-.36-.59-.52-.78-1.36-1.67-2.76-3.32-4.08-5.01-.6-.77-1.11-.75-1.87-.2-2.28,1.66-4.6,3.27-6.93,4.87-3.22,2.21-6.33,4.57-9.03,7.4-.4.42-.79.85-1.14,1.31-.15.2-.17.5-.24.75.23-.05.46-.1.68-.17.08-.02.14-.08.22-.12,4.74-2.54,9.75-4.41,14.93-5.84,2.28-.63,4.59-1.15,6.88-1.74.36-.09.69-.3,1.1-.48Zm-62.61-14.36c.4-.14.67-.22.93-.31-.11-.29-.16-.62-.34-.85-1.7-2.3-3.45-4.57-5.12-6.88-.48-.66-1.02-.84-1.71-.58-2.37.89-4.74,1.75-7.06,2.75-.69.3-1.27.94-1.77,1.53-.31.37-.36.95-.52,1.43.45.14.89.34,1.35.41,2.09.33,4.19.57,6.28.94,2.7.48,5.38,1.05,7.98,1.57Zm16.63-13.43s0,0,0,0c0-1.41-.03-2.82.01-4.23.03-.91-.33-1.39-1.26-1.49-1.78-.2-3.54-.46-5.32-.64-.25-.03-.77.24-.77.37-.02,1.3-.52,2.76.38,3.86,1.91,2.35,3.96,4.59,5.97,6.85.17.19.48.26.73.39.09-.26.25-.51.26-.77.02-1.45.01-2.9.01-4.35Z"/>
</svg>