<?xml version="1.0" encoding="UTF-8"?>
<svg id="Layer_1" data-name="Layer 1" xmlns="http://www.w3.org/2000/svg" viewBox="0 0 99.76 159.93">
  <path d="m64.67,0c-.6,3.14-1.17,5.93-1.67,8.74-.94,5.26-1.9,10.52-1.71,15.91.29,8.31,2.41,16.16,6.51,23.35,2.74,4.81,5.91,9.39,9.03,13.97,4.67,6.84,9.66,13.47,14.17,20.42,5.92,9.13,9.28,19.1,8.7,30.17-.83,15.6-7.47,28.14-19.77,37.68-8.49,6.59-18.21,9.6-28.91,9.68-6.6.05-13.07-.7-19.29-3.01-11.87-4.41-20.24-12.64-25.8-23.87-3.62-7.31-5.23-15.13-5.78-23.23-.96-14.14,2.76-27.25,8.67-39.87,5.14-11,11.65-21.18,18.87-30.92,7.96-10.75,16.71-20.8,26.51-29.91,3.12-2.9,6.4-5.65,9.61-8.46.18-.16.38-.29.86-.66Zm12.2,79.81c-.13.09-.26.18-.38.27.85,2.65.67,5.34.21,7.99-.46,2.69-1.04,5.37-1.8,7.98-1.2,4.17-2.64,8.27-3.89,12.43-1.06,3.54.74,7.7,3.9,9.02,2.18.91,4.49,1.1,6.83.67,3.14-.57,5.25-2.42,6.2-5.42.52-1.64.93-3.38.98-5.09.27-9.22-3.17-17.2-8.5-24.48-.95-1.3-2.36-2.26-3.55-3.38Z"/>
</svg>