<?xml version="1.0" encoding="UTF-8"?>
<svg id="Layer_1" data-name="Layer 1" xmlns="http://www.w3.org/2000/svg" viewBox="0 0 153.56 170.85">
  <path d="m30.93,3.3c2.98-.55,5.94-1.24,8.94-1.61,5.21-.65,10.44-1.31,15.68-1.57,4.87-.24,9.77-.12,14.64.14,3.37.18,6.74.75,10.08,1.33,7.51,1.3,14.65,3.74,21.37,7.36,12.13,6.54,21.02,16.23,27.49,28.29,3.38,6.3,5.91,12.94,7.94,19.78.1.34.23.67.41,1.19,1.65-1.53,2.26-3.37,2.47-5.29.42-3.88-.06-7.74-1.29-11.4-2.12-6.35-4.52-12.6-6.8-18.9-.12-.34-.21-.68-.06-1.18.3.43.59.87.91,1.28,5.63,7.27,10.45,15.03,14.04,23.51,2.48,5.85,4.16,11.92,5,18.25.67,5.07.51,10.07-.36,15.08-1.17,6.78-3.85,12.9-7.81,18.48-4.59,6.45-10.29,11.9-15.59,17.73-3.2,3.52-6.17,7.26-9.23,10.9-.22.26-.38.57-.73,1.09,7.41-2.27,14.75-3.85,21.37-7.49,4.95-2.71,9.34-6.13,13.17-10.28.18-.2.39-.38.59-.56.13.03.26.06.38.09-.14,1.1-.12,2.25-.44,3.29-2.63,8.48-6.54,16.19-13.36,22.15-5.5,4.8-11.92,7.7-18.99,9.25-5.24,1.15-10.56,1.46-15.91,1.56-5.99.12-11.87,1.07-17.49,3.24-1.32.51-2.58,1.34-3.62,2.3-1.33,1.22-1.25,2.56-.12,3.97,1.44,1.81,3.15,2.8,5.62,2.82,8.16.06,16.32.32,24.49.51.15,0,.29.06.74.17-.54.43-.86.79-1.26.99-5.44,2.79-11.12,4.93-17.08,6.27-4.52,1.01-9.05,2.01-13.62,2.7-4.25.65-8.55,1.1-12.85,1.28-8.94.39-17.88.65-26.83.79-11.74.18-21.36-4.49-29.18-13.12-4.29-4.73-7.95-9.89-10.3-15.87-3.11-7.9-4.09-16.03-2.8-24.49,1.13-7.38,3.85-14.02,8.38-19.91,4.71-6.12,10.5-10.91,17.73-13.82,3.47-1.39,7.08-2.18,10.79-2.7,6.28-.87,12.3.2,18.23,2.01,6.42,1.95,12.58,1.08,18.71-1.18,8.32-3.08,15.83-7.73,23.47-12.13.29-.17.56-.35.85-.5.1-.05.24-.03.52-.05-.08.63-.16,1.22-.23,1.81-.73,6.19-2.02,12.23-4.48,18-2.95,6.92-7.49,12.39-13.99,16.33-2.59,1.57-5.02,3.54-7.16,5.69-1.27,1.28-2.18,3.18-2.61,4.95-.69,2.83.81,5.23,3.89,6.77,6.61,3.29,12.23,2.89,17.69-2.26,3.85-3.63,6.95-7.83,8.43-12.97.51-1.79.67-3.77.56-5.63-.32-5.32.06-10.57.72-15.85.73-5.88,3.96-10.14,7.98-14.03.42-.4.97-.66,1.47-.98.15.08.3.16.45.24-.33,1.66-.59,3.35-1.01,4.99-1.02,3.95-2.67,7.78-2.25,11.99.21,2.09.86,4.04,2.11,5.76.55.76,1.19,1.11,1.93.31,1.37-1.48,2.99-2.83,3.96-4.53,3.26-5.69,5.23-11.87,6.31-18.33.04-.24.03-.5.04-.74,0-.33,0-.66,0-1.04-1.17-.2-2.3-.37-3.42-.59-7.5-1.49-13.43-5.65-18.63-11.02-3.27-3.38-5.77-7.24-7.13-11.79-.92-3.08-.75-6.19-.6-9.32l.32-.2c.37.43.79.82,1.1,1.28,1.94,2.84,3.8,5.73,5.8,8.52.71.99,1.66,1.87,2.65,2.59,1.62,1.19,3.32.65,3.94-1.26.33-1.01.45-2.11.51-3.17.37-6.65-1.6-12.58-5.62-17.85-2.5-3.29-5.72-5.52-9.9-5.67-2-.07-4.14.41-6.02,1.15-3.58,1.4-6.96,3.28-10.52,4.75-2.52,1.04-5.18,1.89-7.96,1.58-1.79-.2-3.56-.7-5.3-1.19-3.26-.92-6.49-1.94-9.74-2.92-.15-.05-.28-.16-.66-.38.52-.22.85-.42,1.21-.49,5.34-1.1,10.7-2.1,16.02-3.3,1.92-.43,3.78-1.21,5.58-2.03,1.81-.83,1.99-1.74,1.08-3.49-.89-1.71-2.37-2.74-4.01-3.59-3.71-1.92-7.71-3-11.8-3.68-4.64-.78-9.31-1.44-13.99-2-4.52-.54-9.06-.88-13.59-1.32-.49-.05-.97-.23-1.46-.35,0-.16,0-.33,0-.49Z"/>
  <path d="m18.3,40.2c-.81-3.6-1.59-7.07-2.4-10.68-5.67,2.16-9.78,6.27-14.58,9.24-.12-.08-.23-.16-.35-.23.45-1.51.83-3.05,1.37-4.52,1.39-3.81,3.49-7.24,6.04-10.37,3.38-4.15,6.93-8.15,11.59-10.97,4.49-2.72,9.24-3.44,14.31-2.07,5.44,1.47,7.16,7.17,5.72,11.11-.96,2.63-3.36,3.36-5.81,3.86-.57.12-1.15.19-1.73.2-3.49.01-5.96,1.77-7.76,4.58-2.03,3.16-3.99,6.38-5.99,9.56-.04.06-.13.09-.41.29Z"/>
  <path d="m47.78,35.05c1.06-.99,2.35-1.7,3.67-1.14,2.61,1.1,5.12,2.46,7.64,3.78,1.43.75,2.76,1.68,4.19,2.43,1.95,1.03,2.88.87,4.43-.69.88-.88,1.67-1.84,2.51-2.76,3.06-3.32,6.7-3.69,10.51-1.9,2.69,1.26,3.53,3.83,3.82,6.56.38,3.46-1.09,6.12-3.87,8.09-2.79,1.97-5.84,3.26-9.29,3.49-4.21.27-7.44-1.61-10.09-4.66-1.35-1.56-2.51-3.29-3.81-4.9-2.62-3.25-5.51-6.19-9.41-7.93-.1-.04-.16-.18-.31-.36Z"/>
</svg>