<?xml version="1.0" encoding="UTF-8"?>
<svg id="Layer_1" data-name="Layer 1" xmlns="http://www.w3.org/2000/svg" viewBox="0 0 188.67 189.52">
  <path d="m18.49,151.77c4.15-1.34,8.16-2.53,12.09-3.92,3.8-1.34,7.42-3.08,10.47-5.82,2.12-1.89,3.4-3.98,2.57-7-.42-1.54-.47-3.19-.65-4.8-.37-3.4,1.13-6.13,3.49-8.28,2-1.82,4.33-3.3,6.59-4.82.61-.41.95-.72.77-1.43-1.38-5.52-4.24-10.31-10.93-10.57-.89-.03-2.02.34-2.67.93-1.43,1.31-2.62,2.87-3.91,4.33-.74.84-1.44,1.72-2.24,2.5-3.3,3.23-6.43,3.44-10.26.84-3.42-2.32-6.11-5.37-8.52-8.64-5.09-6.91-10.02-13.93-15.01-20.91-.07-.1-.1-.22-.3-.66.61.31.97.49,1.33.67,4.49,2.22,8.93,4.55,13.5,6.59,2.05.91,4.36,1.26,6.56,1.79,2.96.7,5.06-.73,6.7-2.98,1.39-1.9,2.52-4.01,4.01-5.82,2.47-3.02,5.6-4.08,9.43-2.69,2.14.78,4.33,1.42,6.52,2.02.42.11,1.25-.11,1.42-.43,1.38-2.58,2.72-5.2,3.93-7.86.68-1.5.51-3.11-.19-4.59-1.5-3.19-3.73-5.76-6.79-7.55-1.72-1-3.56-.95-5.42-.46-1.04.28-2.09.53-3.13.81-3.11.84-4.84-.06-5.75-3.17-1.04-3.55-1.21-7.2-.6-10.84,1.63-9.77,3.33-19.52,5-29.28.04-.24.11-.47.19-.83.68,2.85,1.2,5.61,2.02,8.27,1.36,4.47,2.7,8.99,5.38,12.91.71,1.05,1.58,2.05,2.56,2.85,1.6,1.29,3.42,1.83,5.44.84.85-.42,1.75-.76,2.6-1.19,5.49-2.79,9.76-.61,12.5,3.29,1.68,2.4,3.07,5.01,4.49,7.59.49.89,1.05,1.12,1.98,1.06,4.45-.3,9.05-3.9,10.27-8.22.4-1.42.68-2.91.73-4.38.11-3.63-1.42-6.48-4.46-8.51-1.2-.81-2.4-1.64-3.54-2.53-1.18-.92-1.62-2.17-.87-3.52.86-1.54,1.78-3.1,2.91-4.44,3.54-4.21,7.78-7.71,12.2-10.93,5.59-4.07,11.35-7.9,17.04-11.83.19-.13.4-.22.83-.14-.24.34-.46.68-.71,1.01-3.44,4.69-6.51,9.59-8.68,15.02-1.78,4.47-.78,8.25,2.63,11.52,1.59,1.52,3.13,3.08,4.71,4.61,2.07,1.99,2.86,4.5,3.06,7.27.25,3.43-.22,6.79-1.18,10.07-.29.99-.18,1.59.83,2.1,2.14,1.07,4.16,2.4,6.34,3.38,2.85,1.28,6.6.54,8.44-1.46,1.45-1.59,1.72-3.57,1.57-5.59-.19-2.43-.58-4.85-.88-7.28-.29-2.39.24-3.52,2.58-4.06,2.73-.63,5.55-1.23,8.32-1.19,5.04.07,10.1.4,15.11,1.01,6.33.77,12.61,1.93,18.91,2.94.52.08,1.03.25,1.55.59-1.6.44-3.2.86-4.79,1.32-4.93,1.41-9.88,2.79-14.79,4.3-1.25.38-2.43,1.07-3.54,1.78-2.67,1.72-3.19,3.08-2.49,6.21.6,2.66,1.29,5.31,1.89,7.97.68,2.96-.4,5.35-2.72,7.12-2.96,2.26-6.02,4.41-9.08,6.53-.8.55-.92.97-.39,1.78,1.01,1.57,1.87,3.23,2.89,4.79.92,1.42,2.18,2.47,3.79,3.1,3.62,1.4,6.38.43,8.27-2.96.4-.72.78-1.46,1.15-2.2,2.2-4.34,7.16-5.96,11.55-3.77,3.59,1.79,6.27,4.65,8.59,7.78,3.82,5.16,7.4,10.5,11.08,15.76,1.83,2.61,3.67,5.22,5.5,7.83.2.29.39.59.39,1.13-1.65-.89-3.29-1.8-4.96-2.67-5.5-2.89-10.94-5.91-16.98-7.56-3.59-.98-5.73-.06-7.63,3.16-.42.71-.82,1.45-1.08,2.23-1.94,5.68-6.49,7.17-11.68,6.25-2.61-.46-5.21-.98-7.81-1.51-.75-.15-1.21-.01-1.61.72-1.1,2.04-2.31,4.02-3.44,6.05-1.12,2.01-.74,3.93.55,5.71,1.81,2.48,4.06,4.49,6.71,6.02,1.49.86,3.14,1.04,4.82.73,2.03-.38,4.05-.85,6.09-1.22,1.88-.34,2.61-.06,3.1,1.78.55,2.06.88,4.22,1,6.35.44,7.97-.83,15.79-2.27,23.58-.7,3.79-1.5,7.56-2.26,11.34-.04.19-.13.36-.32.85-.73-2.51-1.35-4.73-2.04-6.93-1.58-5.07-3.26-10.11-6.35-14.51-.72-1.03-1.66-1.95-2.63-2.77-1.45-1.23-3.1-1.22-4.79-.46-1.21.54-2.43,1.07-3.62,1.63-3.58,1.68-6.63.6-9.35-1.85-2.89-2.61-4.73-5.96-6.31-9.44-.39-.86-.78-1.12-1.67-.95-4.35.81-8.08,2.64-9.65,7.04-1.79,5.01-.78,9.54,3.63,12.53,1.16.79,2.33,1.59,3.42,2.47,1.52,1.22,1.87,2.16.96,3.91-1.01,1.93-2.18,3.83-3.61,5.45-4.56,5.15-10,9.3-15.59,13.27-4.53,3.21-9.02,6.47-13.53,9.71-.09.06-.21.09-.51.22,1.07-1.72,2.09-3.25,3-4.83,2.96-5.1,5.66-10.31,7.08-16.1.65-2.66.2-4.92-1.83-6.8-1.31-1.2-2.66-2.36-3.99-3.56-.77-.69-1.55-1.37-2.27-2.11-3.9-4.01-3.65-8.62-1.87-13.42.43-1.16,1-2.28,1.35-3.47.13-.44,0-1.16-.31-1.49-1.74-1.86-3.9-2.95-6.47-3.01-2.49-.06-4.98,0-7.3,1.11-2.2,1.05-3.33,2.8-3.39,5.21-.05,2.07-.1,4.15-.05,6.22.15,5.23-2.2,7.42-7.06,8.46-4.02.86-8.12.66-12.13.11-7.88-1.06-15.72-2.39-23.58-3.62-.64-.1-1.27-.3-1.97-.47ZM94.58,54.63c-10.8-.02-19.63,3.37-27.14,10.21-11.37,10.36-15.79,23.2-12.72,38.18,2.58,12.62,10.81,21.4,22.11,26.73,13.68,6.46,27.39,5.58,40.2-2.87,5.46-3.6,9.9-8.31,12.8-14.28,4.13-8.5,4.74-17.42,2.96-26.57-3.03-15.55-19.03-31.89-38.2-31.4Z"/>
  <path d="m58.16,95.91c-.07-11.74,3.87-20.31,11.37-27.25,9.27-8.58,20.23-11.44,32.46-8.84,15.22,3.24,29.37,18.68,27.83,37.12-1.08,12.89-7.16,22.36-18.32,28.6-6.21,3.47-13.05,4.57-20.08,4.02-14.02-1.1-24-8.28-30.25-20.73-2.25-4.48-3.01-9.36-3-12.92Z"/>
</svg>