<?xml version="1.0" encoding="UTF-8"?>
<svg id="Layer_1" data-name="Layer 1" xmlns="http://www.w3.org/2000/svg" viewBox="0 0 162.33 168.04">
  <path d="m57.93,41.88c-.88-.57-1.7-1.03-2.44-1.6-4.21-3.23-8.34-6.55-12.6-9.71-3.04-2.26-4.5-5.39-5.19-8.9-.53-2.67-.62-5.42-.98-8.13-.23-1.8.52-3.12,1.96-3.98,1.95-1.17,3.91-2.39,6.02-3.19,4.32-1.64,8.67-3.33,13.15-4.42,3.75-.91,7.7-1.13,11.58-1.37,5.33-.33,10.69-.76,16-.51,13.97.67,27.27,3.85,39.13,11.7,1.55,1.03,2.98,2.24,4.55,3.25,1.14.73.98,1.32.09,2.05-3,2.48-5.86,5.14-9.02,7.4-3.46,2.47-7.19,4.57-11.06,6.98.9-.08,1.63-.11,2.34-.22,6.29-.96,12.1-3.38,17.83-5.99,2.22-1.01,4.36-2.2,6.59-3.18.41-.18,1.27.05,1.6.4,1.95,2.03,3.92,4.05,5.67,6.24,6.27,7.87,11.28,16.49,14.45,26.05,1.75,5.28,3.53,10.7,4.14,16.19.72,6.53,1.09,13.26-.88,19.75-2.4,7.92-7.59,12.94-15.8,14.62-4.82.99-9.66,1.86-14.48,2.87-2.94.62-5.9,1.25-8.75,2.17-1.32.42-2.53,1.4-3.6,2.35-1.34,1.19-2.03,2.78-2.03,4.64.02,7.01-.09,14.02.06,21.02.08,3.55.55,7.1.99,10.63.62,4.96.18,9.83-.9,14.67-.07.32-.12.65-.14.98-.04.92-.45,1.33-1.42,1.5-2.72.49-5.42,1.13-8.13,1.71-1.73.37-1.84.31-2.26-1.46-.35-1.49-.72-2.98-1.02-4.48-.51-2.59-.72-5.21.11-7.75.88-2.7.65-5.28-.37-7.87-.61-1.54-1.19-3.09-1.74-4.65-.26-.74-.7-1.09-1.49-.98-.24.03-.5.01-.75.02-2.21.03-2.9.99-2.48,3.23.34,1.83.57,3.67.82,5.51.15,1.16-.21,1.98-1.3,2.68-3.21,2.05-6.31,4.27-9.5,6.37-.5.33-1.35.66-1.77.45-.38-.19-.54-1.11-.54-1.71-.04-5.1-.02-10.2-.02-15.3,0-1.61-.17-1.78-1.77-1.84-.66-.02-1.33-.02-1.99-.01-1.73.01-1.72.02-1.93,1.79-.81,6.78-1.66,13.56-2.43,20.34-.11.98-.53,1.29-1.41,1.28-2.03-.01-4.06,0-6.09,0-.95,0-1.37-.39-1.62-1.43-1.31-5.55-2.75-11.07-4.16-16.6-.46-1.8-.95-3.6-1.51-5.38-.13-.4-.61-.95-.96-.96-.47-.02-1.3.3-1.39.64-1.21,4.47-3.73,8.69-1.98,13.71.61,1.76.21,3.92.09,5.88-.11,1.85-.51,3.69-.68,5.54-.09,1.03-.59,1.62-1.54,1.54-2.01-.19-4.07-.3-5.99-.86-3.49-1.01-5.2-3.75-5.64-7.18-.31-2.44-.34-4.94-.26-7.41.12-3.73.44-7.44.68-11.17.35-5.5.68-11,1.08-16.5.08-1.14.38-2.29.74-3.39.46-1.37.28-2.63-.41-3.82-.95-1.65-1.95-3.27-2.99-4.87-.25-.38-.72-.76-1.15-.86-4.76-1.07-9.53-2.07-14.3-3.11-4.04-.88-8.11-1.64-12.09-2.72-5.86-1.58-9.67-5.56-11.92-11.08C.27,87.42-.21,81.06.07,74.66c.32-7.05,1.36-13.99,3.55-20.75,4.19-12.94,11.64-23.71,21.6-32.85,1.25-1.15,2.55-2.24,3.85-3.34.29-.25.65-.42,1.06-.67.53,2.44,1,4.69,1.52,6.93.76,3.26,1.57,6.51,2.35,9.77.27,1.15,1.2,1.35,2.14,1.58,3.17.77,6.39,1.39,9.5,2.38,4.01,1.28,7.94,2.85,11.9,4.28.06.02.15-.04.39-.11Zm62.72,52.57h0c4.02,0,8.04.05,12.06-.01,2.07-.03,4.16-.05,6.19-.41,7.11-1.26,11.32-4.92,11.08-12.93-.22-7.46-3.63-13.44-8.92-18.52-8.07-7.73-19.77-8.29-28.49-2.57-5.28,3.47-9.47,8.01-12.6,13.51-2.17,3.82-3.41,7.94-3.36,12.32.06,5.61,2.54,8.62,8.37,8.62,5.22,0,10.44,0,15.66,0Zm-77.51.07c0-.07,0-.13,0-.2,3.23,0,6.47.13,9.69-.04,2.38-.13,4.79-.45,7.08-1.05,4.05-1.07,7.02-3.57,6.43-8.9-.26-2.36-.71-4.78-1.52-7-2.58-7.04-7.42-12.36-13.41-16.7-2.91-2.11-6.14-3.51-9.68-4.29-5.59-1.24-10.88-.48-15.61,2.61-7.75,5.07-12.46,12.22-13.05,21.6-.38,6.02,1.95,9.84,6.96,11.61,2.85,1.01,5.94,1.56,8.96,1.82,4.7.4,9.43.38,14.15.54Zm41.68-5.89c-.15.47-.22.61-.24.75-.74,8.04-1.45,16.08-2.21,24.12-.2,2.14-.49,4.28-.81,6.4-.11.72-.6,1.13-1.42,1.08-.8-.05-1.21-.45-1.3-1.22-.08-.62-.17-1.23-.21-1.85-.14-2.44-.26-4.88-.39-7.33-.37-6.95-.74-13.89-1.14-20.84-.03-.5-.38-.98-.57-1.47-.49.25-1.16.37-1.42.76-1.35,1.98-2.79,3.93-3.83,6.07-2.44,5.07-3.34,10.56-3.62,16.12-.26,5.21-.45,10.44.75,15.59.6,2.59.98,2.88,3.31,1.75,2.26-1.1,4.59-1.47,7.08-1.49,4.04-.02,7.76,1.11,11.4,2.64,1.2.5,1.67.39,2.1-.81.33-.93.71-1.9.75-2.86.22-5.55.34-11.1.47-16.65,0-.43-.14-.92-.36-1.29-2.13-3.63-3.6-7.53-5.03-11.46-.95-2.62-2.11-5.16-3.3-8.04Z"/>
</svg>